<svg width="28" height="28" viewBox="0 0 28 28" fill="none" xmlns="http://www.w3.org/2000/svg">
<path fill-rule="evenodd" clip-rule="evenodd" d="M13.7517 7.5C12.0941 7.5 10.5044 8.15848 9.33229 9.33058C8.16019 10.5027 7.50171 12.0924 7.50171 13.75C7.50171 15.4076 8.16019 16.9973 9.33229 18.1694C10.5044 19.3415 12.0941 20 13.7517 20C15.4093 20 16.999 19.3415 18.1711 18.1694C19.3432 16.9973 20.0017 15.4076 20.0017 13.75C20.0017 12.0924 19.3432 10.5027 18.1711 9.33058C16.999 8.15848 15.4093 7.5 13.7517 7.5ZM10.0017 13.75C10.0017 14.7446 10.3968 15.6984 11.1001 16.4017C11.8033 17.1049 12.7571 17.5 13.7517 17.5C14.7463 17.5 15.7001 17.1049 16.4034 16.4017C17.1066 15.6984 17.5017 14.7446 17.5017 13.75C17.5017 12.7554 17.1066 11.8016 16.4034 11.0983C15.7001 10.3951 14.7463 10 13.7517 10C12.7571 10 11.8033 10.3951 11.1001 11.0983C10.3968 11.8016 10.0017 12.7554 10.0017 13.75Z" fill="white"/>
<path d="M21.2517 5C20.9202 5 20.6022 5.1317 20.3678 5.36612C20.1334 5.60054 20.0017 5.91848 20.0017 6.25C20.0017 6.58152 20.1334 6.89946 20.3678 7.13388C20.6022 7.3683 20.9202 7.5 21.2517 7.5C21.5832 7.5 21.9012 7.3683 22.1356 7.13388C22.37 6.89946 22.5017 6.58152 22.5017 6.25C22.5017 5.91848 22.37 5.60054 22.1356 5.36612C21.9012 5.1317 21.5832 5 21.2517 5Z" fill="white"/>
<path fill-rule="evenodd" clip-rule="evenodd" d="M5.00171 0C3.67563 0 2.40386 0.526784 1.46617 1.46447C0.528493 2.40215 0.00170898 3.67392 0.00170898 5V22.5C0.00170898 23.8261 0.528493 25.0978 1.46617 26.0355C2.40386 26.9732 3.67563 27.5 5.00171 27.5H22.5017C23.8278 27.5 25.0996 26.9732 26.0372 26.0355C26.9749 25.0978 27.5017 23.8261 27.5017 22.5V5C27.5017 3.67392 26.9749 2.40215 26.0372 1.46447C25.0996 0.526784 23.8278 0 22.5017 0H5.00171ZM22.5017 2.5H5.00171C4.33867 2.5 3.70278 2.76339 3.23394 3.23223C2.7651 3.70107 2.50171 4.33696 2.50171 5V22.5C2.50171 23.163 2.7651 23.7989 3.23394 24.2678C3.70278 24.7366 4.33867 25 5.00171 25H22.5017C23.1647 25 23.8006 24.7366 24.2695 24.2678C24.7383 23.7989 25.0017 23.163 25.0017 22.5V5C25.0017 4.33696 24.7383 3.70107 24.2695 3.23223C23.8006 2.76339 23.1647 2.5 22.5017 2.5Z" fill="white"/>
</svg>
