<svg width="60" height="21" viewBox="0 0 60 21" fill="none" xmlns="http://www.w3.org/2000/svg">
<path d="M4.28713 1.72226C5.0965 1.72226 5.92802 2.05406 6.33356 2.93828H8.35444C7.77851 1.20576 6.12398 0 4.28713 0C1.93568 0 0 1.94289 0 4.30309C0 6.6633 1.93568 8.60619 4.28713 8.60619C6.66413 8.60619 8.56232 6.67527 8.56232 4.30309V4.0209H4.45922V5.40965H6.57723C6.12398 6.67527 5.0965 6.93352 4.28713 6.93352C2.96486 6.93352 1.86241 5.74145 1.86241 4.32704C1.86241 2.91434 2.96486 1.72226 4.28713 1.72226Z" fill="white"/>
<path d="M16.7064 5.2865H14.5986L15.6533 2.3123L16.7064 5.2865ZM19.8178 8.48303L16.4371 0.123123H14.8814L11.5008 8.48303H13.4723L14.0721 6.79839H17.2448L17.8446 8.48303H19.8178Z" fill="white"/>
<path d="M24.8746 6.78642V1.83171H25.4267C26.8461 1.83171 27.802 2.91432 27.802 4.30308C27.802 5.69183 26.8342 6.78642 25.4267 6.78642H24.8746ZM23.0616 0.123123V8.48303H25.5358C27.8991 8.48303 29.6764 6.66328 29.6764 4.30308C29.6764 1.94287 27.8872 0.123123 25.5358 0.123123H23.0616Z" fill="white"/>
<path d="M37.4525 1.72226C38.2619 1.72226 39.0934 2.05406 39.499 2.93828H41.5198C40.9439 1.20576 39.2894 0 37.4525 0C35.1011 0 33.1654 1.94289 33.1654 4.30309C33.1654 6.6633 35.1011 8.60619 37.4525 8.60619C39.8295 8.60619 41.7277 6.67527 41.7277 4.30309V4.0209H37.6246V5.40965H39.7426C39.2894 6.67527 38.2619 6.93352 37.4525 6.93352C36.1303 6.93352 35.0278 5.74145 35.0278 4.32704C35.0278 2.91434 36.1303 1.72226 37.4525 1.72226Z" fill="white"/>
<path d="M50.1648 6.81037H47.1761V5.12744H50.0422V3.45477H47.1761V1.79579H50.1648V0.123123H45.3393V8.48303H50.1648V6.81037Z" fill="white"/>
<path d="M57.6247 1.79579H60V0.123123H53.4108V1.79579H55.7861V8.48303H57.6247V1.79579Z" fill="white"/>
<path d="M4.51062 18.7253C5.11041 18.869 5.51765 19.0263 5.73576 19.2042C5.8857 19.3273 5.96068 19.483 5.96068 19.6745C5.96068 19.8661 5.91978 20.0234 5.83799 20.1329C5.63352 20.4185 5.26547 20.5622 4.74917 20.5622C4.02841 20.5622 3.61946 20.3176 3.53085 19.825H2.97366C3.13724 20.6101 3.72851 21 4.74917 21C5.20583 21 5.58581 20.9042 5.89252 20.699C6.26057 20.4596 6.44971 20.1055 6.44971 19.6403C6.44971 19.2589 6.29976 18.9648 6.00157 18.7595C5.79028 18.609 5.4495 18.4722 4.98091 18.3508C4.50381 18.2276 4.1988 18.125 4.05567 18.0498C3.74214 17.8924 3.58538 17.6735 3.5922 17.3862C3.5922 17.2374 3.61946 17.1074 3.68762 17.0116C3.86483 16.7448 4.17835 16.608 4.62649 16.608C5.25865 16.608 5.61989 16.8132 5.71531 17.21H6.23331C6.06292 16.5396 5.52447 16.1992 4.62649 16.1992C4.21925 16.1992 3.85801 16.3087 3.55812 16.5259C3.25141 16.7448 3.09635 17.0663 3.09635 17.5025C3.09635 18.0976 3.57175 18.5064 4.51062 18.7253Z" fill="white"/>
<path d="M8.12418 16.6969H9.24708V20.8974H9.72248V16.6969H10.8454V16.254H8.12418V16.6969Z" fill="white"/>
<path d="M16.9278 18.5748C16.9278 19.1084 16.7387 19.5582 16.3706 19.9276C15.9958 20.3039 15.5476 20.4869 15.0228 20.4869C14.4997 20.4869 14.0499 20.3039 13.6835 19.9276C13.3086 19.5582 13.1246 19.1084 13.1246 18.5748C13.1246 18.0566 13.3086 17.6051 13.6835 17.2305C14.0499 16.8611 14.4997 16.6695 15.0228 16.6695C15.5476 16.6695 15.9958 16.8611 16.3706 17.2305C16.7387 17.6051 16.9278 18.0566 16.9278 18.5748ZM17.4049 18.5748C17.4049 18.2481 17.3368 17.9403 17.2141 17.6461C17.0914 17.3588 16.921 17.1074 16.7046 16.8884C16.4865 16.6764 16.2343 16.5053 15.9481 16.3822C15.6567 16.2608 15.35 16.1924 15.0228 16.1924C14.6974 16.1924 14.3838 16.2608 14.0976 16.3822C13.813 16.5053 13.5608 16.6764 13.3427 16.8884C13.1246 17.1074 12.9542 17.3588 12.8332 17.6461C12.7106 17.9403 12.6492 18.2481 12.6492 18.5748C12.6492 18.9032 12.7106 19.2179 12.8332 19.5035C12.9542 19.7976 13.1246 20.0508 13.3427 20.2697C13.5608 20.4869 13.813 20.6579 14.0976 20.7811C14.3838 20.9042 14.6974 20.9658 15.0228 20.9658C15.35 20.9658 15.6567 20.9042 15.9481 20.7811C16.2343 20.6579 16.4865 20.4869 16.7046 20.2697C16.921 20.0508 17.0914 19.7976 17.2141 19.5035C17.3368 19.2179 17.4049 18.9032 17.4049 18.5748Z" fill="white"/>
<path d="M20.0582 18.6158V16.7243H21.1334C21.4129 16.7243 21.6361 16.8132 21.8065 16.9911C21.9701 17.1689 22.0587 17.3861 22.0587 17.6598C22.0587 17.9334 21.9701 18.1592 21.7929 18.3439C21.6156 18.5269 21.3992 18.6158 21.1334 18.6158H20.0582ZM22.5358 17.6666C22.5358 17.2716 22.3858 16.9295 22.0996 16.6627C21.8201 16.4027 21.4742 16.2676 21.0653 16.2676H19.5811V20.9111H20.0582V19.0742H20.6086L21.9701 20.9111H22.6107L21.1811 19.0742C21.5424 19.0537 21.8474 18.9237 22.0996 18.6843C22.3858 18.4174 22.5358 18.0771 22.5358 17.6666Z" fill="white"/>
<path d="M27.3935 20.9111V20.4664H25.1205V18.8142H27.3254V18.3644H25.1205V16.7106H27.3935V16.2676H24.6433V20.9111H27.3935Z" fill="white"/>
</svg>
