<svg xmlns="http://www.w3.org/2000/svg" xmlns:xlink="http://www.w3.org/1999/xlink" width="500" zoomAndPan="magnify" viewBox="0 0 375 374.999991" height="500" preserveAspectRatio="xMidYMid meet" version="1.0"><defs><g/><clipPath id="faf44110bc"><path d="M 60 147.714844 L 138.75 147.714844 L 138.75 175 L 60 175 Z M 60 147.714844 " clip-rule="nonzero"/></clipPath><clipPath id="cb875228d7"><path d="M 37.5 174 L 124 174 L 124 215 L 37.5 215 Z M 37.5 174 " clip-rule="nonzero"/></clipPath><clipPath id="dd79f63702"><path d="M 92.734375 150.910156 L 113.734375 150.910156 L 113.734375 153.160156 L 92.734375 153.160156 Z M 92.734375 150.910156 " clip-rule="nonzero"/></clipPath><clipPath id="a1c781c6c3"><path d="M 66.5625 204.011719 L 74.0625 204.011719 L 74.0625 211.511719 L 66.5625 211.511719 Z M 66.5625 204.011719 " clip-rule="nonzero"/></clipPath><clipPath id="35309ceca1"><path d="M 119 147.714844 L 204.664062 147.714844 L 204.664062 189 L 119 189 Z M 119 147.714844 " clip-rule="nonzero"/></clipPath><clipPath id="a13b42f014"><path d="M 103.414062 188 L 182 188 L 182 215 L 103.414062 215 Z M 103.414062 188 " clip-rule="nonzero"/></clipPath></defs><g clip-path="url(#faf44110bc)"><path fill="#bde4eb" d="M 123.027344 147.714844 L 76.421875 147.714844 L 72.53125 154.445312 L 68.648438 161.171875 L 64.765625 167.902344 L 60.882812 174.625 L 76.417969 174.625 L 80.304688 167.902344 L 84.183594 161.171875 L 130.804688 161.171875 L 138.570312 147.714844 Z M 123.027344 147.714844 " fill-opacity="1" fill-rule="nonzero"/></g><g clip-path="url(#cb875228d7)"><path fill="#ffffff" d="M 107.496094 174.625 L 91.957031 174.625 L 88.070312 181.359375 L 84.183594 188.085938 L 99.722656 188.085938 L 95.835938 194.8125 L 91.953125 201.542969 L 60.878906 201.542969 L 64.765625 194.8125 L 68.648438 188.085938 L 53.109375 188.085938 L 49.226562 194.8125 L 41.453125 208.273438 L 37.574219 214.996094 L 99.726562 214.996094 L 103.609375 208.273438 L 107.496094 201.542969 L 111.378906 194.8125 L 115.265625 188.085938 L 119.148438 181.355469 L 123.039062 174.625 Z M 107.496094 174.625 " fill-opacity="1" fill-rule="nonzero"/></g><g clip-path="url(#dd79f63702)"><path fill="#000000" d="M 112.816406 153.160156 L 93.652344 153.160156 C 93.152344 153.160156 92.746094 152.683594 92.746094 152.09375 L 92.746094 151.980469 C 92.746094 151.390625 93.152344 150.910156 93.652344 150.910156 L 112.816406 150.910156 C 113.316406 150.910156 113.722656 151.390625 113.722656 151.980469 L 113.722656 152.09375 C 113.722656 152.683594 113.316406 153.160156 112.816406 153.160156 Z M 112.816406 153.160156 " fill-opacity="1" fill-rule="nonzero"/></g><g clip-path="url(#a1c781c6c3)"><path fill="#000000" d="M 74.0625 207.761719 C 74.0625 208.257812 73.96875 208.738281 73.777344 209.195312 C 73.585938 209.65625 73.316406 210.0625 72.964844 210.414062 C 72.613281 210.765625 72.207031 211.035156 71.746094 211.226562 C 71.289062 211.417969 70.808594 211.511719 70.3125 211.511719 C 69.816406 211.511719 69.335938 211.417969 68.878906 211.226562 C 68.417969 211.035156 68.011719 210.765625 67.660156 210.414062 C 67.308594 210.0625 67.039062 209.65625 66.847656 209.195312 C 66.65625 208.738281 66.5625 208.257812 66.5625 207.761719 C 66.5625 207.265625 66.65625 206.785156 66.847656 206.328125 C 67.039062 205.867188 67.308594 205.460938 67.660156 205.109375 C 68.011719 204.757812 68.417969 204.488281 68.878906 204.296875 C 69.335938 204.105469 69.816406 204.011719 70.3125 204.011719 C 70.808594 204.011719 71.289062 204.105469 71.746094 204.296875 C 72.207031 204.488281 72.613281 204.757812 72.964844 205.109375 C 73.316406 205.460938 73.585938 205.867188 73.777344 206.328125 C 73.96875 206.785156 74.0625 207.265625 74.0625 207.761719 Z M 74.0625 207.761719 " fill-opacity="1" fill-rule="nonzero"/></g><g clip-path="url(#35309ceca1)"><path fill="#ffffff" d="M 196.714844 147.714844 L 142.335938 147.714844 L 138.449219 154.441406 L 134.566406 161.171875 L 130.683594 167.898438 L 126.796875 174.628906 L 122.910156 181.355469 L 119.03125 188.082031 L 150.101562 188.082031 L 153.988281 181.355469 L 157.867188 174.628906 L 142.335938 174.628906 L 146.21875 167.898438 L 150.101562 161.171875 L 196.71875 161.171875 L 200.601562 154.441406 L 204.488281 147.714844 Z M 196.714844 147.714844 " fill-opacity="1" fill-rule="nonzero"/></g><g clip-path="url(#a13b42f014)"><path fill="#bde4eb" d="M 165.644531 188.082031 L 161.757812 194.8125 L 157.871094 201.539062 L 111.257812 201.539062 L 103.488281 215 L 165.640625 215 L 169.523438 208.269531 L 173.410156 201.539062 L 177.296875 194.816406 L 181.183594 188.082031 Z M 165.644531 188.082031 " fill-opacity="1" fill-rule="nonzero"/></g><g fill="#ffffff" fill-opacity="1"><g transform="translate(204.567253, 178.859137)"><g><path d="M 11.230469 -15.441406 C 13.085938 -15.441406 14.992188 -14.683594 15.921875 -12.664062 L 20.554688 -12.664062 C 19.234375 -16.621094 15.441406 -19.375 11.230469 -19.375 C 5.839844 -19.375 1.402344 -14.9375 1.402344 -9.546875 C 1.402344 -4.15625 5.839844 0.28125 11.230469 0.28125 C 16.679688 0.28125 21.03125 -4.128906 21.03125 -9.546875 L 21.03125 -10.191406 L 11.625 -10.191406 L 11.625 -7.019531 L 16.480469 -7.019531 C 15.441406 -4.128906 13.085938 -3.539062 11.230469 -3.539062 C 8.199219 -3.539062 5.671875 -6.261719 5.671875 -9.492188 C 5.671875 -12.71875 8.199219 -15.441406 11.230469 -15.441406 Z M 11.230469 -15.441406 "/></g></g></g><g fill="#ffffff" fill-opacity="1"><g transform="translate(232.194301, 178.859137)"><g><path d="M 12.074219 -7.300781 L 7.242188 -7.300781 L 9.660156 -14.09375 Z M 19.207031 0 L 11.457031 -19.09375 L 7.890625 -19.09375 L 0.140625 0 L 4.660156 0 L 6.035156 -3.847656 L 13.308594 -3.847656 L 14.683594 0 Z M 19.207031 0 "/></g></g></g><g fill="#ffffff" fill-opacity="1"><g transform="translate(257.154222, 178.859137)"><g><path d="M 5.839844 -3.875 L 5.839844 -15.191406 L 7.105469 -15.191406 C 10.359375 -15.191406 12.550781 -12.71875 12.550781 -9.546875 C 12.550781 -6.375 10.332031 -3.875 7.105469 -3.875 Z M 1.683594 -19.09375 L 1.683594 0 L 7.355469 0 C 12.773438 0 16.847656 -4.15625 16.847656 -9.546875 C 16.847656 -14.9375 12.746094 -19.09375 7.355469 -19.09375 Z M 1.683594 -19.09375 "/></g></g></g><g fill="#ffffff" fill-opacity="1"><g transform="translate(280.598094, 178.859137)"><g><path d="M 11.230469 -15.441406 C 13.085938 -15.441406 14.992188 -14.683594 15.921875 -12.664062 L 20.554688 -12.664062 C 19.234375 -16.621094 15.441406 -19.375 11.230469 -19.375 C 5.839844 -19.375 1.402344 -14.9375 1.402344 -9.546875 C 1.402344 -4.15625 5.839844 0.28125 11.230469 0.28125 C 16.679688 0.28125 21.03125 -4.128906 21.03125 -9.546875 L 21.03125 -10.191406 L 11.625 -10.191406 L 11.625 -7.019531 L 16.480469 -7.019531 C 15.441406 -4.128906 13.085938 -3.539062 11.230469 -3.539062 C 8.199219 -3.539062 5.671875 -6.261719 5.671875 -9.492188 C 5.671875 -12.71875 8.199219 -15.441406 11.230469 -15.441406 Z M 11.230469 -15.441406 "/></g></g></g><g fill="#ffffff" fill-opacity="1"><g transform="translate(308.225143, 178.859137)"><g><path d="M 12.746094 -3.820312 L 5.894531 -3.820312 L 5.894531 -7.664062 L 12.464844 -7.664062 L 12.464844 -11.484375 L 5.894531 -11.484375 L 5.894531 -15.273438 L 12.746094 -15.273438 L 12.746094 -19.09375 L 1.683594 -19.09375 L 1.683594 0 L 12.746094 0 Z M 12.746094 -3.820312 "/></g></g></g><g fill="#ffffff" fill-opacity="1"><g transform="translate(328.27195, 178.859137)"><g><path d="M 9.800781 -15.273438 L 15.246094 -15.273438 L 15.246094 -19.09375 L 0.140625 -19.09375 L 0.140625 -15.273438 L 5.585938 -15.273438 L 5.585938 0 L 9.800781 0 Z M 9.800781 -15.273438 "/></g></g></g><g fill="#ffffff" fill-opacity="1"><g transform="translate(212.208579, 207.244268)"><g><path d="M 4.101562 -4.992188 C 5.476562 -4.664062 6.410156 -4.304688 6.910156 -3.898438 C 7.253906 -3.617188 7.425781 -3.261719 7.425781 -2.824219 C 7.425781 -2.386719 7.332031 -2.027344 7.144531 -1.777344 C 6.675781 -1.125 5.832031 -0.796875 4.648438 -0.796875 C 2.996094 -0.796875 2.058594 -1.355469 1.855469 -2.480469 L 0.578125 -2.480469 C 0.953125 -0.6875 2.308594 0.203125 4.648438 0.203125 C 5.695312 0.203125 6.566406 -0.015625 7.269531 -0.484375 C 8.113281 -1.03125 8.546875 -1.839844 8.546875 -2.902344 C 8.546875 -3.773438 8.203125 -4.445312 7.519531 -4.914062 C 7.035156 -5.257812 6.253906 -5.570312 5.179688 -5.847656 C 4.085938 -6.128906 3.386719 -6.363281 3.058594 -6.535156 C 2.339844 -6.894531 1.980469 -7.394531 1.996094 -8.050781 C 1.996094 -8.390625 2.058594 -8.6875 2.214844 -8.90625 C 2.621094 -9.515625 3.339844 -9.828125 4.367188 -9.828125 C 5.816406 -9.828125 6.644531 -9.359375 6.863281 -8.453125 L 8.050781 -8.453125 C 7.660156 -9.984375 6.425781 -10.761719 4.367188 -10.761719 C 3.433594 -10.761719 2.605469 -10.511719 1.917969 -10.015625 C 1.214844 -9.515625 0.859375 -8.78125 0.859375 -7.785156 C 0.859375 -6.425781 1.949219 -5.492188 4.101562 -4.992188 Z M 4.101562 -4.992188 "/></g></g></g><g fill="#ffffff" fill-opacity="1"><g transform="translate(224.281552, 207.244268)"><g><path d="M 0.3125 -9.625 L 2.886719 -9.625 L 2.886719 -0.03125 L 3.976562 -0.03125 L 3.976562 -9.625 L 6.550781 -9.625 L 6.550781 -10.636719 L 0.3125 -10.636719 Z M 0.3125 -9.625 "/></g></g></g><g fill="#ffffff" fill-opacity="1"><g transform="translate(234.264495, 207.244268)"><g><path d="M 10.511719 -5.335938 C 10.511719 -4.117188 10.078125 -3.089844 9.234375 -2.246094 C 8.375 -1.386719 7.347656 -0.96875 6.144531 -0.96875 C 4.945312 -0.96875 3.914062 -1.386719 3.074219 -2.246094 C 2.214844 -3.089844 1.792969 -4.117188 1.792969 -5.335938 C 1.792969 -6.519531 2.214844 -7.550781 3.074219 -8.40625 C 3.914062 -9.25 4.945312 -9.6875 6.144531 -9.6875 C 7.347656 -9.6875 8.375 -9.25 9.234375 -8.40625 C 10.078125 -7.550781 10.511719 -6.519531 10.511719 -5.335938 Z M 11.605469 -5.335938 C 11.605469 -6.082031 11.449219 -6.785156 11.167969 -7.457031 C 10.886719 -8.113281 10.496094 -8.6875 10 -9.1875 C 9.5 -9.671875 8.921875 -10.0625 8.265625 -10.34375 C 7.597656 -10.621094 6.894531 -10.777344 6.144531 -10.777344 C 5.398438 -10.777344 4.679688 -10.621094 4.023438 -10.34375 C 3.371094 -10.0625 2.792969 -9.671875 2.292969 -9.1875 C 1.792969 -8.6875 1.402344 -8.113281 1.125 -7.457031 C 0.84375 -6.785156 0.703125 -6.082031 0.703125 -5.335938 C 0.703125 -4.585938 0.84375 -3.867188 1.125 -3.214844 C 1.402344 -2.542969 1.792969 -1.964844 2.292969 -1.464844 C 2.792969 -0.96875 3.371094 -0.578125 4.023438 -0.296875 C 4.679688 -0.015625 5.398438 0.125 6.144531 0.125 C 6.894531 0.125 7.597656 -0.015625 8.265625 -0.296875 C 8.921875 -0.578125 9.5 -0.96875 10 -1.464844 C 10.496094 -1.964844 10.886719 -2.542969 11.167969 -3.214844 C 11.449219 -3.867188 11.605469 -4.585938 11.605469 -5.335938 Z M 11.605469 -5.335938 "/></g></g></g><g fill="#ffffff" fill-opacity="1"><g transform="translate(249.69088, 207.244268)"><g><path d="M 2.261719 -5.242188 L 2.261719 -9.5625 L 4.726562 -9.5625 C 5.367188 -9.5625 5.878906 -9.359375 6.269531 -8.953125 C 6.644531 -8.546875 6.847656 -8.050781 6.847656 -7.425781 C 6.847656 -6.800781 6.644531 -6.285156 6.238281 -5.863281 C 5.832031 -5.445312 5.335938 -5.242188 4.726562 -5.242188 Z M 7.941406 -7.410156 C 7.941406 -8.3125 7.597656 -9.09375 6.941406 -9.703125 C 6.300781 -10.296875 5.507812 -10.605469 4.570312 -10.605469 L 1.167969 -10.605469 L 1.167969 0 L 2.261719 0 L 2.261719 -4.195312 L 3.523438 -4.195312 L 6.644531 0 L 8.113281 0 L 4.835938 -4.195312 C 5.664062 -4.242188 6.363281 -4.539062 6.941406 -5.085938 C 7.597656 -5.695312 7.941406 -6.472656 7.941406 -7.410156 Z M 7.941406 -7.410156 "/></g></g></g><g fill="#ffffff" fill-opacity="1"><g transform="translate(261.29594, 207.244268)"><g><path d="M 7.472656 0 L 7.472656 -1.015625 L 2.261719 -1.015625 L 2.261719 -4.789062 L 7.316406 -4.789062 L 7.316406 -5.816406 L 2.261719 -5.816406 L 2.261719 -9.59375 L 7.472656 -9.59375 L 7.472656 -10.605469 L 1.167969 -10.605469 L 1.167969 0 Z M 7.472656 0 "/></g></g></g></svg>