<svg width="60" height="22" viewBox="0 0 60 22" fill="none" xmlns="http://www.w3.org/2000/svg">
<path d="M4.28713 2.53614C5.0965 2.53614 5.92802 2.86793 6.33356 3.75216H8.35444C7.77851 2.01963 6.12398 0.813873 4.28713 0.813873C1.93568 0.813873 0 2.75677 0 5.11697C0 7.47717 1.93568 9.42006 4.28713 9.42006C6.66413 9.42006 8.56232 7.48914 8.56232 5.11697V4.83477H4.45922V6.22353H6.57723C6.12398 7.48914 5.0965 7.7474 4.28713 7.7474C2.96486 7.7474 1.86241 6.55532 1.86241 5.14091C1.86241 3.72821 2.96486 2.53614 4.28713 2.53614Z" fill="white"/>
<path d="M16.7064 6.10037H14.5986L15.6534 3.12617L16.7064 6.10037ZM19.8178 9.2969L16.4372 0.936996H14.8815L11.5009 9.2969H13.4723L14.0721 7.61227H17.2449L17.8446 9.2969H19.8178Z" fill="white"/>
<path d="M24.8746 7.60029V2.64558H25.4267C26.8461 2.64558 27.802 3.72819 27.802 5.11695C27.802 6.50571 26.8342 7.60029 25.4267 7.60029H24.8746ZM23.0616 0.936996V9.2969H25.5358C27.8991 9.2969 29.6764 7.47715 29.6764 5.11695C29.6764 2.75675 27.8872 0.936996 25.5358 0.936996H23.0616Z" fill="white"/>
<path d="M37.4525 2.53614C38.2619 2.53614 39.0934 2.86793 39.499 3.75216H41.5198C40.9439 2.01963 39.2894 0.813873 37.4525 0.813873C35.1011 0.813873 33.1654 2.75677 33.1654 5.11697C33.1654 7.47717 35.1011 9.42006 37.4525 9.42006C39.8295 9.42006 41.7277 7.48914 41.7277 5.11697V4.83477H37.6246V6.22353H39.7426C39.2894 7.48914 38.2619 7.7474 37.4525 7.7474C36.1303 7.7474 35.0278 6.55532 35.0278 5.14091C35.0278 3.72821 36.1303 2.53614 37.4525 2.53614Z" fill="white"/>
<path d="M50.1648 7.62424H47.1761V5.94131H50.0421V4.26865H47.1761V2.60966H50.1648V0.936996H45.3392V9.2969H50.1648V7.62424Z" fill="white"/>
<path d="M57.6247 2.60966H60V0.936996H53.4109V2.60966H55.7862V9.2969H57.6247V2.60966Z" fill="white"/>
<path d="M4.51059 19.5392C5.11038 19.6829 5.51762 19.8402 5.73573 20.0181C5.88567 20.1412 5.96065 20.2969 5.96065 20.4884C5.96065 20.68 5.91975 20.8373 5.83796 20.9468C5.63349 21.2324 5.26544 21.376 4.74914 21.376C4.02837 21.376 3.61943 21.1315 3.53082 20.6389H2.97363C3.13721 21.4239 3.72848 21.8139 4.74914 21.8139C5.2058 21.8139 5.58578 21.7181 5.89249 21.5129C6.26054 21.2734 6.44968 20.9194 6.44968 20.4542C6.44968 20.0728 6.29973 19.7786 6.00154 19.5734C5.79025 19.4229 5.44946 19.2861 4.98088 19.1646C4.50378 19.0415 4.19877 18.9389 4.05564 18.8636C3.74211 18.7063 3.58535 18.4874 3.59216 18.2C3.59216 18.0512 3.61943 17.9213 3.68759 17.8255C3.8648 17.5587 4.17832 17.4219 4.62646 17.4219C5.25862 17.4219 5.61986 17.6271 5.71528 18.0239H6.23328C6.06288 17.3534 5.52444 17.0131 4.62646 17.0131C4.21922 17.0131 3.85798 17.1226 3.55809 17.3398C3.25138 17.5587 3.09632 17.8802 3.09632 18.3163C3.09632 18.9115 3.57172 19.3203 4.51059 19.5392Z" fill="white"/>
<path d="M8.12415 17.5108H9.24705V21.7113H9.72245V17.5108H10.8453V17.0678H8.12415V17.5108Z" fill="white"/>
<path d="M16.9278 19.3887C16.9278 19.9223 16.7386 20.3721 16.3706 20.7415C15.9957 21.1178 15.5476 21.3008 15.0228 21.3008C14.4997 21.3008 14.0498 21.1178 13.6835 20.7415C13.3086 20.3721 13.1246 19.9223 13.1246 19.3887C13.1246 18.8704 13.3086 18.4189 13.6835 18.0444C14.0498 17.6749 14.4997 17.4834 15.0228 17.4834C15.5476 17.4834 15.9957 17.6749 16.3706 18.0444C16.7386 18.4189 16.9278 18.8704 16.9278 19.3887ZM17.4049 19.3887C17.4049 19.062 17.3367 18.7541 17.214 18.46C17.0914 18.1726 16.921 17.9212 16.7046 17.7023C16.4865 17.4902 16.2343 17.3192 15.948 17.1961C15.6566 17.0746 15.3499 17.0062 15.0228 17.0062C14.6973 17.0062 14.3838 17.0746 14.0975 17.1961C13.813 17.3192 13.5608 17.4902 13.3427 17.7023C13.1246 17.9212 12.9542 18.1726 12.8332 18.46C12.7105 18.7541 12.6492 19.062 12.6492 19.3887C12.6492 19.717 12.7105 20.0317 12.8332 20.3174C12.9542 20.6115 13.1246 20.8646 13.3427 21.0836C13.5608 21.3008 13.813 21.4718 14.0975 21.5949C14.3838 21.7181 14.6973 21.7797 15.0228 21.7797C15.3499 21.7797 15.6566 21.7181 15.948 21.5949C16.2343 21.4718 16.4865 21.3008 16.7046 21.0836C16.921 20.8646 17.0914 20.6115 17.214 20.3174C17.3367 20.0317 17.4049 19.717 17.4049 19.3887Z" fill="white"/>
<path d="M20.0583 19.4297V17.5381H21.1335C21.4129 17.5381 21.6361 17.6271 21.8065 17.8049C21.9701 17.9828 22.0587 18.2 22.0587 18.4737C22.0587 18.7473 21.9701 18.9731 21.7929 19.1578C21.6157 19.3408 21.3993 19.4297 21.1335 19.4297H20.0583ZM22.5358 18.4805C22.5358 18.0854 22.3859 17.7434 22.0996 17.4766C21.8202 17.2166 21.4743 17.0815 21.0653 17.0815H19.5812V21.7249H20.0583V19.8881H20.6087L21.9701 21.7249H22.6108L21.1812 19.8881C21.5424 19.8675 21.8474 19.7376 22.0996 19.4981C22.3859 19.2313 22.5358 18.891 22.5358 18.4805Z" fill="white"/>
<path d="M27.3935 21.7249V21.2802H25.1204V19.6281H27.3253V19.1783H25.1204V17.5244H27.3935V17.0815H24.6433V21.7249H27.3935Z" fill="white"/>
</svg>
