<svg width="63" height="55" viewBox="0 0 63 55" fill="none" xmlns="http://www.w3.org/2000/svg">
<path d="M12.1958 28.8448L4.92727 35.6919C3.33432 37.1923 2.53785 37.9439 2.26056 38.58C1.63223 40.0267 2.17206 41.6345 3.53787 42.3968C4.13965 42.7296 5.22226 42.8343 7.38749 43.0437C8.6117 43.1618 9.22233 43.2181 9.73266 43.398C10.3032 43.5992 10.819 43.9108 11.2443 44.3112C11.6696 44.7116 11.9942 45.1913 12.1958 45.717C12.3846 46.2002 12.4466 46.7746 12.5734 47.9287C12.7917 49.9686 12.9038 50.9886 13.2578 51.5522C14.0661 52.8406 15.7741 53.3452 17.308 52.7547C17.9865 52.4971 18.783 51.7482 20.3759 50.2451L31.5 39.7637L42.6241 50.2451C44.217 51.7482 45.0135 52.4971 45.692 52.7547C47.2259 53.3452 48.9339 52.8406 49.7422 51.5522C50.0962 50.9886 50.2053 49.9686 50.4266 47.9287C50.5534 46.7746 50.6154 46.2002 50.8042 45.717C51.229 44.638 52.1198 43.7979 53.2673 43.398C53.7777 43.2181 54.3883 43.1618 55.6125 43.0437C57.7777 42.8343 58.8604 42.7296 59.4621 42.3968C60.8279 41.6345 61.3678 40.0267 60.7394 38.58C60.4622 37.9439 59.6657 37.1923 58.0727 35.6919L50.8042 28.8448M28.9808 15.486C30.1017 13.6528 30.6622 12.7402 31.5 12.7402C32.3378 12.7402 32.8983 13.6528 34.0192 15.486L34.3083 15.9584C34.6269 16.4791 34.7862 16.7368 35.034 16.9086C35.2847 17.0804 35.5945 17.1448 36.2139 17.2709L36.7744 17.389C38.9515 17.8373 40.04 18.0601 40.2996 18.817C40.5591 19.5766 39.8158 20.3657 38.332 21.9439L37.9485 22.3519C37.5266 22.8002 37.3143 23.023 37.2199 23.3021C37.1255 23.5813 37.1579 23.8792 37.2199 24.4777L37.2789 25.0226C37.503 27.1296 37.6151 28.1845 36.9396 28.6515C36.2611 29.1185 35.2405 28.6918 33.2021 27.8382L32.677 27.6181C32.0959 27.3766 31.8068 27.2558 31.5 27.2558C31.1932 27.2558 30.9041 27.3766 30.323 27.6181L29.7979 27.8382C27.7595 28.6945 26.7389 29.1185 26.0604 28.6515C25.3819 28.1845 25.4969 27.1296 25.7211 25.0226L25.7801 24.4777C25.8421 23.8792 25.8745 23.5813 25.7801 23.3021C25.6857 23.0256 25.4733 22.8002 25.0515 22.3519L24.668 21.9439C23.1842 20.3657 22.4408 19.5766 22.7004 18.817C22.96 18.0601 24.0485 17.8373 26.2256 17.389L26.7861 17.2709C27.4055 17.1448 27.7153 17.083 27.966 16.9086C28.2138 16.7368 28.3731 16.4791 28.6917 15.9584L28.9808 15.486Z" stroke="#232323" stroke-width="3"/>
<path d="M12.3256 13.8058C10.5579 17.8234 10.3687 22.2732 11.79 26.4031C13.2112 30.533 16.1558 34.0899 20.1261 36.4728C24.0964 38.8556 28.8491 39.9184 33.581 39.4814C38.3129 39.0443 42.7339 37.1344 46.0971 34.0743C49.4603 31.0142 51.5593 26.9915 52.0396 22.686C52.5199 18.3804 51.3519 14.056 48.7331 10.4434C46.1143 6.83088 42.2051 4.15164 37.6662 2.85846C33.1273 1.56527 28.2369 1.73743 23.8214 3.34583" stroke="#232323" stroke-width="3" stroke-linecap="round"/>
</svg>
