<svg width="80" height="67" viewBox="0 0 80 67" fill="none" xmlns="http://www.w3.org/2000/svg">
<path d="M11.416 7.18909C11.2301 7.03336 11.0093 6.90982 10.7664 6.82554C10.5234 6.74126 10.263 6.69788 10 6.69788C9.73705 6.69788 9.47665 6.74126 9.23369 6.82554C8.99073 6.90982 8.76998 7.03336 8.58402 7.18909C8.39807 7.34483 8.25057 7.52971 8.14993 7.73319C8.04929 7.93666 7.9975 8.15475 7.9975 8.37499C7.9975 8.59523 8.04929 8.81332 8.14993 9.0168C8.25057 9.22027 8.39807 9.40516 8.58402 9.56089L13.224 13.4435C11.7796 13.6013 10.4531 14.1938 9.4919 15.1103C8.53068 16.0269 8.00041 17.2051 8.00002 18.425V41.875C8.00002 43.2077 8.63217 44.4858 9.75738 45.4282C10.8826 46.3706 12.4087 46.9 14 46.9H53.172L57.172 50.25H16.34C16.7538 51.2301 17.5204 52.0787 18.5341 52.6786C19.5478 53.2786 20.7587 53.6005 22 53.6H58C58.984 53.6 59.948 53.5162 60.876 53.3521L68.584 59.8109C68.9596 60.1254 69.4689 60.3021 70 60.3021C70.5311 60.3021 71.0405 60.1254 71.416 59.8109C71.7916 59.4964 72.0026 59.0698 72.0026 58.625C72.0026 58.1802 71.7916 57.7536 71.416 57.4391L11.416 7.18909ZM48 42.5684V43.55H24V40.2C24 38.423 23.1572 36.7189 21.6569 35.4624C20.1566 34.2059 18.1218 33.5 16 33.5H12V26.8H16C17.6944 26.8007 19.3453 26.3507 20.7148 25.5151C22.0843 24.6794 23.1015 23.5012 23.62 22.1502L29.108 26.7464C28.2029 28.0264 27.8321 29.5223 28.0542 30.9982C28.2763 32.4742 29.0786 33.8462 30.3346 34.8981C31.5906 35.95 33.2289 36.622 34.9912 36.808C36.7536 36.9939 38.5397 36.6834 40.068 35.9254L48 42.5684ZM17.172 16.75L20 19.1184V20.1C20 20.9885 19.5786 21.8406 18.8285 22.4688C18.0783 23.097 17.0609 23.45 16 23.45H12V18.425C12 17.9808 12.2107 17.5547 12.5858 17.2406C12.9609 16.9265 13.4696 16.75 14 16.75H17.172ZM32.132 29.2823L37.04 33.3861C36.3618 33.5375 35.6479 33.5369 34.9701 33.3843C34.2922 33.2318 33.6741 32.9327 33.1778 32.517C32.6814 32.1013 32.3243 31.5837 32.1422 31.0159C31.96 30.4482 31.9593 29.8504 32.14 29.2823H32.132ZM14 43.55C13.4696 43.55 12.9609 43.3735 12.5858 43.0594C12.2107 42.7453 12 42.3192 12 41.875V36.85H16C17.0609 36.85 18.0783 37.2029 18.8285 37.8312C19.5786 38.4594 20 39.3115 20 40.2V43.55H14ZM56 33.5C53.908 33.5 52.008 34.17 50.584 35.2688L53.416 37.6439C54.1374 37.1306 55.0534 36.8491 56 36.85H60V41.875C60.0002 42.2234 59.8701 42.5631 59.628 42.8465L62.468 45.225C63.42 44.3372 64 43.1614 64 41.875V18.425C64 17.0923 63.3679 15.8141 62.2427 14.8718C61.1175 13.9294 59.5913 13.4 58 13.4H24.468L28.468 16.75H48V20.1C48 21.8769 48.8429 23.5811 50.3432 24.8376C51.8435 26.0941 53.8783 26.8 56 26.8H60V33.5H56ZM58 16.75C58.5305 16.75 59.0392 16.9265 59.4142 17.2406C59.7893 17.5547 60 17.9808 60 18.425V23.45H56C54.9392 23.45 53.9217 23.097 53.1716 22.4688C52.4215 21.8406 52 20.9885 52 20.1V16.75H58ZM65.304 47.5968L68.132 49.9686C70.532 47.8614 72 45.0106 72 41.875V25.125C72.0007 24.0854 71.6163 23.0712 70.8999 22.2222C70.1835 21.3733 69.1703 20.7313 68 20.3847V41.875C68 44.086 66.976 46.0993 65.304 47.5968Z" fill="black"/>
</svg>
