<svg width="24" height="25" viewBox="0 0 24 25" fill="none" xmlns="http://www.w3.org/2000/svg">
<path d="M12 10.8139C14.2091 10.8139 16 9.02301 16 6.81387C16 4.60473 14.2091 2.81387 12 2.81387C9.79086 2.81387 8 4.60473 8 6.81387C8 9.02301 9.79086 10.8139 12 10.8139Z" stroke="white" stroke-width="1.5"/>
<path d="M19.997 18.8139C20 18.6499 20 18.4829 20 18.3139C20 15.8289 16.418 13.8139 12 13.8139C7.582 13.8139 4 15.8289 4 18.3139C4 20.7989 4 22.8139 12 22.8139C14.231 22.8139 15.84 22.6569 17 22.3769" stroke="white" stroke-width="1.5" stroke-linecap="round"/>
</svg>
