<svg width="60" height="60" viewBox="0 0 60 60" fill="none" xmlns="http://www.w3.org/2000/svg">
<path d="M37.5 30H30M30 30H22.5M30 30V22.5M30 30V37.5M7.5 26.0425C7.5 18.0475 7.5 14.05 8.445 12.705C9.3875 11.3625 13.145 10.075 20.6625 7.5025L22.095 7.0125C26.0125 5.67 27.97 5 30 5C32.0275 5 33.9875 5.67 37.905 7.0125L39.3375 7.5025C46.855 10.075 50.6125 11.3625 51.555 12.705C52.5 14.05 52.5 18.05 52.5 26.0425V29.9775C52.5 36.24 50.4075 41.07 47.5 44.76M7.9825 35C10.125 45.745 18.94 51.2825 24.7475 53.8175C26.55 54.605 27.4525 55 30 55C32.55 55 33.45 54.605 35.2525 53.8175C36.7 53.1875 38.33 52.3675 40 51.3325" stroke="black" stroke-width="3" stroke-linecap="round"/>
</svg>
