<svg width="80" height="67" viewBox="0 0 80 67" fill="none" xmlns="http://www.w3.org/2000/svg">
<rect width="80" height="67" fill="white"/>
<path d="M26.6667 53.0417C28.4348 53.0417 30.1305 52.4534 31.3807 51.4063C32.631 50.3593 33.3333 48.9391 33.3333 47.4583C33.3333 45.9775 32.631 44.5574 31.3807 43.5103C30.1305 42.4632 28.4348 41.875 26.6667 41.875C24.8986 41.875 23.2029 42.4632 21.9526 43.5103C20.7024 44.5574 20 45.9775 20 47.4583C20 48.9391 20.7024 50.3593 21.9526 51.4063C23.2029 52.4534 24.8986 53.0417 26.6667 53.0417ZM60 53.0417C61.7681 53.0417 63.4638 52.4534 64.714 51.4063C65.9643 50.3593 66.6667 48.9391 66.6667 47.4583C66.6667 45.9775 65.9643 44.5574 64.714 43.5103C63.4638 42.4632 61.7681 41.875 60 41.875C58.2319 41.875 56.5362 42.4632 55.286 43.5103C54.0357 44.5574 53.3333 45.9775 53.3333 47.4583C53.3333 48.9391 54.0357 50.3593 55.286 51.4063C56.5362 52.4534 58.2319 53.0417 60 53.0417Z" stroke="#1E1E1E" stroke-width="3" stroke-miterlimit="1.5" stroke-linecap="round" stroke-linejoin="round"/>
<path d="M33.5 47.4583H50V18.425C50 17.9808 49.7893 17.5547 49.4142 17.2406C49.0392 16.9265 48.5304 16.75 48 16.75H3.33334M18.8333 47.4583H12C11.7374 47.4583 11.4773 47.415 11.2346 47.3308C10.992 47.2467 10.7715 47.1233 10.5858 46.9677C10.4001 46.8122 10.2528 46.6275 10.1523 46.4243C10.0517 46.2211 10 46.0033 10 45.7833V32.1042" stroke="#1E1E1E" stroke-width="3" stroke-linecap="round"/>
<path d="M6.66669 25.125H20" stroke="#1E1E1E" stroke-width="3" stroke-linecap="round" stroke-linejoin="round"/>
<path d="M50 25.125H68.7C69.0866 25.1251 69.4649 25.219 69.7891 25.3954C70.1133 25.5718 70.3695 25.823 70.5267 26.1188L76.4933 37.3637C76.607 37.5772 76.666 37.8083 76.6667 38.042V45.7833C76.6667 46.0033 76.6149 46.2211 76.5144 46.4243C76.4139 46.6275 76.2666 46.8122 76.0809 46.9677C75.8952 47.1233 75.6747 47.2467 75.432 47.3308C75.1894 47.415 74.9293 47.4583 74.6667 47.4583H68.3333M50 47.4583H53.3333" stroke="#1E1E1E" stroke-width="3" stroke-linecap="round"/>
</svg>
