<svg width="30" height="30" viewBox="0 0 30 30" fill="none" xmlns="http://www.w3.org/2000/svg">
<path d="M30.0017 3.50962C29.8011 4.01801 29.4276 4.66018 28.8813 5.43609C28.3351 6.21199 27.6606 6.8943 26.8579 7.48294C26.8802 7.69702 26.8969 7.89767 26.9081 8.08496C26.9946 10.9686 26.419 13.9605 25.6204 16.453C24.0725 21.0873 21.7006 24.8171 18.3127 27.3496C14.7799 29.7814 10.6654 30.2986 6.87461 29.858C4.35796 29.5112 1.87753 28.525 0.00170898 26.6673C3.43253 27.1594 6.63433 25.7589 9.16558 23.4966C6.35378 23.582 4.31081 21.1412 3.34621 18.3193C3.78103 18.456 4.23591 18.4395 4.65056 18.3996C5.16096 18.342 5.64546 18.2846 6.12213 18.1588C4.32921 17.4646 2.76041 16.1885 1.94153 14.2657C1.46121 13.0474 1.24433 11.8872 1.23921 10.5733C2.07933 11.1041 3.08991 11.6214 4.01513 11.5766C2.61783 10.1562 1.49763 8.34087 1.28938 6.25879C1.15791 4.52278 1.51991 2.93808 2.04191 1.46271C4.13208 4.21932 6.47728 6.48788 9.18236 7.88426C11.0323 8.79334 12.877 9.2795 14.7844 9.28895C14.5642 7.24455 14.7354 5.26736 15.5369 3.58982C16.4802 1.78624 17.8564 0.739813 19.3998 0.218492C21.6082 -0.461083 23.7622 0.498848 25.1189 2.34563C26.5819 2.15599 27.9834 1.37712 29.0988 0.5797C28.6249 2.30204 27.702 4.01453 26.3563 4.83397C27.6375 4.54933 28.8601 4.09419 30.0017 3.50962Z" fill="white"/>
</svg>
