<svg width="30" height="30" viewBox="0 0 30 30" fill="none" xmlns="http://www.w3.org/2000/svg">
<g clip-path="url(#clip0_229_181)">
<path d="M15.0973 3.74805H15.2642C16.8055 3.75367 24.6148 3.80992 26.7205 4.37617C27.357 4.54899 27.9371 4.88584 28.4026 5.35306C28.8682 5.82029 29.203 6.40152 29.3736 7.03867C29.563 7.75117 29.6961 8.6943 29.7861 9.66742L29.8048 9.86242L29.8461 10.3499L29.8611 10.5449C29.983 12.2587 29.998 13.8637 29.9998 14.2143V14.3549C29.998 14.7187 29.9811 16.4324 29.8461 18.2174L29.8311 18.4143L29.8142 18.6093C29.7205 19.6818 29.5817 20.7468 29.3736 21.5305C29.2035 22.168 28.8689 22.7495 28.4032 23.2168C27.9376 23.6841 27.3573 24.0207 26.7205 24.193C24.5455 24.778 16.2786 24.8193 15.133 24.8212H14.8667C14.2873 24.8212 11.8911 24.8099 9.37858 24.7237L9.05983 24.7124L8.89671 24.7049L8.57608 24.6918L8.25546 24.6787C6.17421 24.5868 4.19233 24.4387 3.27921 24.1912C2.64263 24.019 2.06246 23.6826 1.59682 23.2157C1.13118 22.7487 0.796422 22.1676 0.626084 21.5305C0.417959 20.7487 0.279209 19.6818 0.185459 18.6093L0.170459 18.4124L0.155459 18.2174C0.0629232 16.9469 0.0116462 15.6737 0.00170898 14.3999L0.00170898 14.1693C0.00545898 13.7662 0.020459 12.373 0.121709 10.8355L0.134834 10.6424L0.140459 10.5449L0.155459 10.3499L0.196709 9.86242L0.215459 9.66742C0.305459 8.6943 0.438584 7.7493 0.627959 7.03867C0.79801 6.40126 1.13264 5.81975 1.5983 5.35245C2.06395 4.88515 2.64428 4.54847 3.28108 4.37617C4.19421 4.13242 6.17608 3.98242 8.25733 3.88867L8.57608 3.87555L8.89858 3.8643L9.05983 3.85867L9.38046 3.84555C11.1649 3.78812 12.9501 3.75625 14.7355 3.74992H15.0973V3.74805ZM12.0017 9.7668V18.8005L19.7961 14.2855L12.0017 9.7668Z" fill="white"/>
</g>
<defs>
<clipPath id="clip0_229_181">
<rect width="30" height="30" fill="white" transform="translate(0.00170898)"/>
</clipPath>
</defs>
</svg>
